<svg xmlns="http://www.w3.org/2000/svg" fill="none" viewBox="0 0 24 24" id="Ganache--Streamline-Svg-Logos" height="24" width="24">
  <desc>
    Ganache Streamline Icon: https://streamlinehq.com
  </desc>
  <path fill="#5e464d" d="M6.27965 18.0693c0.0999 -0.0006 0.199275 0.014725 0.29435 0.045425 0.0866 0.0277 0.166825 0.072375 0.235975 0.131425 0.06535 0.0575 0.117725 0.128225 0.1537 0.2075 0.0395 0.086275 0.059175 0.1803 0.05765 0.27515 0.000025 0.096175 -0.0185 0.191425 -0.054575 0.28055 -0.03685 0.0912 -0.08625 0.176825 -0.1468 0.2544 -0.063175 0.081675 -0.13595 0.155475 -0.216725 0.2198 -0.07995 0.064925 -0.1659 0.12205 -0.2567 0.170625 -0.087275 0.046325 -0.179275 0.083175 -0.2744 0.1099 -0.08745 0.025275 -0.17795 0.03845 -0.269 0.0392 -0.0658 0.00135 -0.129975 -0.0204 -0.181375 -0.061475 -0.054775 -0.048475 -0.0833 -0.120075 -0.07685 -0.192925 0.000225 -0.0208 0.0015 -0.041575 0.003825 -0.06225 0.002775 -0.02105 0.00715 -0.04185 0.013075 -0.06225 0.00455 -0.016925 0.011275 -0.0332 0.019975 -0.048425 0.005 -0.011325 0.01605 -0.0188 0.02845 -0.0192 0.009825 0.0002 0.0194 0.003125 0.02765 0.00845 0.010625 0.007275 0.02195 0.01345 0.033825 0.01845 0.018975 0.007575 0.0385 0.01375 0.058425 0.018425 0.03385 0.007 0.0684 0.0101 0.102975 0.009225 0.082525 -0.00195 0.163825 -0.0205 0.239025 -0.05455 0.08505 -0.037075 0.16425 -0.086275 0.2352 -0.14605 0.07255 -0.058225 0.134675 -0.1284 0.183675 -0.2075 0.046175 -0.0735 0.070925 -0.1584 0.071475 -0.245175 -0.0005 -0.0336 -0.006725 -0.066875 -0.018425 -0.098375 -0.013025 -0.035875 -0.03345 -0.068625 -0.05995 -0.096075 -0.030925 -0.032975 -0.06835 -0.05915 -0.109925 -0.076875 -0.05345 -0.0214 -0.11075 -0.0316 -0.1683 -0.029975 -0.122375 -0.001125 -0.243425 0.025125 -0.354325 0.076875 -0.118025 0.056 -0.22605 0.13105 -0.319725 0.2221 -0.10345 0.099725 -0.19525 0.21085 -0.273625 0.331275 -0.084 0.1287 -0.15505 0.2654 -0.212125 0.4081 -0.05875 0.148475 -0.103525 0.302075 -0.133725 0.45885 -0.031875 0.153725 -0.0481 0.3103 -0.048425 0.4673 -0.002225 0.1739 0.014025 0.34755 0.048425 0.518025 0.026925 0.1364 0.07355 0.268175 0.13835 0.3912 0.0506 0.0973 0.1223 0.182125 0.209825 0.24825 0.0759 0.05605 0.1677 0.086475 0.262075 0.08685 0.09415 0.001025 0.18745 -0.0181 0.2736 -0.056125 0.0822 -0.036125 0.1578 -0.08575 0.223675 -0.146775 0.0677 -0.06375 0.1264 -0.1364 0.17445 -0.215975 0.048675 -0.080025 0.090325 -0.164125 0.124525 -0.251325 0.032925 -0.084 0.058625 -0.17065 0.07685 -0.259025 0.01615 -0.07815 0.024625 -0.157675 0.025375 -0.237475 -0.0001 -0.0316 -0.0019 -0.06315 -0.0054 -0.09455 -0.0032 -0.0273 -0.005 -0.05475 -0.005375 -0.082225 -0.0015 -0.020875 0.0039 -0.041675 0.015375 -0.059175 0.0108 -0.014 0.025125 -0.024875 0.0415 -0.031525 0.01915 -0.00755 0.0394 -0.01195 0.05995 -0.01305h0.071475c0.03105 0.000825 0.06185 0.006 0.091475 0.01535 0.034325 0.010525 0.06735 0.02495 0.098375 0.04305 0.028825 0.017075 0.05475 0.0386 0.07685 0.0638 0.020325 0.020525 0.032125 0.047975 0.03305 0.07685 -0.015375 0.143725 -0.0246 0.280525 -0.028425 0.40965 -0.00385 0.129125 -0.00615 0.259775 -0.00615 0.393525v0.8362c0.055325 -0.009225 0.109125 -0.0146 0.1614 -0.01845l0.149875 -0.01c0.0684 0 0.112975 0.015375 0.13295 0.058425 0.020375 0.04525 0.023375 0.0964 0.00845 0.143725 -0.015225 0.0551 -0.043125 0.1059 -0.08145 0.148325 -0.0336 0.041725 -0.08335 0.06715 -0.136825 0.06995h-0.1245c-0.023525 0 -0.046475 0.00165 -0.070725 0.003825l-0.050725 0.004625c-0.005375 0.099925 -0.0146 0.201375 -0.02535 0.3036 -0.01145 0.100375 -0.0302 0.199775 -0.0561 0.297425 -0.024475 0.09295 -0.057925 0.1833 -0.099925 0.269775 -0.0389 0.08115 -0.090825 0.1554 -0.153725 0.2198 -0.06265 0.0634 -0.1374 0.113575 -0.2198 0.147575 -0.085875 0.034575 -0.1773 0.053075 -0.269675 0.054675l-0.03085 -0.0001c-0.092125 0.001375 -0.183675 -0.0148 -0.26975 -0.04765 -0.074575 -0.0303 -0.142475 -0.074975 -0.19985 -0.131425 -0.05735 -0.05635 -0.10215 -0.124175 -0.131425 -0.199075 -0.031325 -0.079225 -0.046975 -0.1638 -0.0461 -0.249 -0.002275 -0.125925 0.0293 -0.25015 0.09145 -0.3597 0.062125 -0.10675 0.144025 -0.20065 0.24135 -0.2767 0.1051 -0.08285 0.220925 -0.1511 0.3443 -0.2029 0.12925 -0.055275 0.262 -0.102 0.397375 -0.139875l-0.0001 -0.135575 -0.000675 -0.078275c-0.000575 -0.0379 -0.0016 -0.073975 -0.00335 -0.108275l-0.002025 -0.033725c-0.00385 -0.05525 -0.0044 -0.105675 -0.00425 -0.1515l0.0004 -0.07755c-0.110575 0.1538 -0.250275 0.284375 -0.4112 0.3843 -0.148875 0.090475 -0.319975 0.13785 -0.494175 0.1368 -0.168425 0.002925 -0.334725 -0.03785 -0.482675 -0.11835 -0.143875 -0.081425 -0.26595 -0.1964 -0.35585 -0.3351 -0.102375 -0.159575 -0.176475 -0.3356 -0.21905 -0.520325 -0.05275 -0.222575 -0.07855 -0.4507 -0.07685 -0.679425 0.000625 -0.1825 0.020725 -0.3644 0.05995 -0.542625 0.04 -0.1849 0.098975 -0.3652 0.176 -0.538 0.0766 -0.17465 0.17085 -0.341 0.2813 -0.4965 0.10695 -0.151175 0.2336 -0.287375 0.3766 -0.405025 0.1404 -0.11445 0.29745 -0.2067 0.46575 -0.273625 0.17375 -0.0684 0.358975 -0.102825 0.5457 -0.101525Zm0.13065 4.46935c-0.165225 0.040425 -0.318525 0.119425 -0.4473 0.230575 -0.098175 0.0878 -0.154125 0.213375 -0.153725 0.345075 -0.0092 0.0601 0.009325 0.12115 0.050425 0.16595 0.041075 0.044825 0.100275 0.0686 0.160925 0.064625l-0.003825 -0.003825c0.062225 0.00085 0.122325 -0.022575 0.16755 -0.06535 0.051125 -0.049575 0.090525 -0.109975 0.115275 -0.17675 0.033325 -0.08145 0.0578 -0.166225 0.073025 -0.252875 0.01825 -0.1017 0.030825 -0.204325 0.03765 -0.307425Zm9.32285 -4.13955c0.052325 0.03885 0.08335 0.10005 0.083775 0.165225v1.74545c0.038775 -0.07215 0.082175 -0.1417 0.129875 -0.208275 0.04495 -0.0611 0.0965 -0.117025 0.153725 -0.1668 0.051675 -0.046225 0.1103 -0.0841 0.1737 -0.1122 0.055675 -0.0237 0.115125 -0.037075 0.17545 -0.039575l0.0259 -0.0004c0.083 -0.003225 0.165525 0.01365 0.240575 0.0492 0.059025 0.029925 0.109925 0.0737 0.148325 0.127575 0.037025 0.05215 0.063175 0.111225 0.076875 0.1737 0.014125 0.06125 0.02135 0.1239 0.021525 0.186775v1.159775c0.001975 0.028025 0.007675 0.055675 0.0169 0.082225 0.009525 0.027 0.024725 0.051625 0.044575 0.07225 0.020375 0.0194 0.047025 0.03055 0.074875 0.031675l0.011975 -0.00015c0.056575 0.0011 0.111475 -0.019225 0.153725 -0.056875 0.04495 -0.041 0.082625 -0.08935 0.111425 -0.14295 0.031775 -0.059275 0.057525 -0.1216 0.076875 -0.186l0.011225 -0.039575 0.01235 -0.044975c-0.01455 -0.074725 -0.021225 -0.150975 -0.01975 -0.2275 -0.001425 -0.159525 0.024575 -0.318125 0.076875 -0.468825 0.046625 -0.1353 0.115175 -0.262 0.2029 -0.375075 0.0782 -0.1006 0.175325 -0.184925 0.2859 -0.24825 0.09985 -0.057575 0.212925 -0.088275 0.3282 -0.08915 0.0756 -0.0012 0.150725 0.0121 0.22135 0.0392 0.063225 0.0239 0.120425 0.061425 0.16755 0.1099 0.045975 0.048825 0.0813 0.106675 0.10375 0.16985 0.0221 0.069275 0.032225 0.141775 0.029975 0.21445 -0.000375 0.104975 -0.019375 0.209075 -0.0561 0.307425 -0.038525 0.10655 -0.09435 0.206 -0.16525 0.29435 -0.077575 0.09625 -0.169 0.18045 -0.271325 0.2498 -0.113975 0.07635 -0.239975 0.133 -0.37275 0.16755 0.019775 0.046025 0.045625 0.0892 0.07685 0.12835 0.031675 0.041025 0.06985 0.076575 0.113 0.1053 0.047325 0.0311 0.099175 0.0547 0.1537 0.069925 0.056125 0.015925 0.114 0.024675 0.172225 0.02605l0.02915 0.0001c0.10125 0.0027 0.201825 -0.01725 0.294375 -0.058425 0.078575 -0.03675 0.1489 -0.08905 0.206725 -0.1537 0.05625 -0.064525 0.10215 -0.1374 0.13605 -0.215975 0.033575 -0.0777 0.0593 -0.15855 0.07685 -0.241325 0.007025 -0.0501 0.0372 -0.09395 0.081475 -0.118375 0.03895 -0.01975 0.08375 -0.024675 0.12605 -0.013825 0.042925 0.010375 0.08175 0.0334 0.11145 0.0661 0.030375 0.032325 0.0445 0.0767 0.038425 0.12065 -0.00955 0.062125 -0.022375 0.1237 -0.038425 0.184475 -0.019775 0.072825 -0.0471 0.1434 -0.081475 0.210575 -0.038775 0.07445 -0.085425 0.14455 -0.139125 0.20905 -0.05935 0.071 -0.129025 0.132675 -0.20675 0.182925 -0.089525 0.05705 -0.186875 0.1008 -0.288975 0.1299 -0.1235 0.034725 -0.2514 0.051275 -0.379675 0.049175 -0.131375 -0.00025 -0.2616 -0.024475 -0.3843 -0.071475 -0.1226 -0.0464 -0.235075 -0.116075 -0.33125 -0.2052 -0.041675 -0.03945 -0.079775 -0.0823 -0.113925 -0.12805 -0.0257 0.0411 -0.054175 0.080525 -0.085125 0.11805 -0.066625 0.08175 -0.14795 0.1503 -0.2398 0.20215 -0.092575 0.051275 -0.196225 0.07895 -0.301775 0.080775l-0.0264 -0.000075c-0.071225 0.001525 -0.141975 -0.0121 -0.207525 -0.039975 -0.05785 -0.0257 -0.110075 -0.062525 -0.153725 -0.108375 -0.0428 -0.045575 -0.07575 -0.099475 -0.096825 -0.158325 -0.021975 -0.061675 -0.03315 -0.126675 -0.03305 -0.19215v-1.1936c-0.001675 -0.032525 -0.0071 -0.064775 -0.01615 -0.096075 -0.006875 -0.024625 -0.019525 -0.0473 -0.036875 -0.066075 -0.018 -0.016975 -0.042175 -0.025875 -0.066875 -0.0246 -0.0584 0.007725 -0.1125 0.034775 -0.153725 0.07685 -0.068225 0.059825 -0.12865 0.128 -0.17985 0.2029 -0.06135 0.08815 -0.1129 0.182725 -0.1537 0.282075 -0.04355 0.1003 -0.072025 0.2065 -0.08455 0.315125v0.853875c-0.000225 0.02505 -0.006 0.049725 -0.0169 0.07225 -0.010675 0.0224 -0.02745 0.041325 -0.048425 0.054575 -0.025025 0.014175 -0.053125 0.0219 -0.081725 0.02255l-0.01435 -0.000275c-0.03095 -0.00025 -0.061825 -0.003325 -0.092225 -0.009225 -0.03235 -0.005425 -0.063375 -0.0169 -0.091475 -0.0338 -0.028425 -0.01705 -0.051975 -0.04115 -0.0684 -0.06995 -0.02005 -0.03695 -0.0296 -0.078675 -0.02765 -0.120675l-0.000125 -0.05125c-0.042925 0.03965 -0.08945 0.07535 -0.139 0.1066 -0.091 0.0569 -0.189575 0.100625 -0.292825 0.1299 -0.123875 0.034 -0.252 0.05005 -0.38045 0.04765 -0.12855 0.000175 -0.256175 -0.021675 -0.377375 -0.064575 -0.119775 -0.04225 -0.23 -0.107825 -0.324325 -0.1929 -0.04155 -0.037775 -0.079475 -0.0791 -0.1134 -0.123425 -0.02195 0.033325 -0.045675 0.06555 -0.071075 0.096525 -0.067075 0.081875 -0.148925 0.15045 -0.241325 0.202125 -0.100825 0.0556 -0.2146 0.083425 -0.329725 0.0807 -0.0932 0.0022 -0.185525 -0.0184 -0.269 -0.05995 -0.0725 -0.036525 -0.1344 -0.09105 -0.17985 -0.158325 -0.062025 0.062575 -0.133975 0.114525 -0.2129 0.153725 -0.081875 0.040125 -0.17145 0.061875 -0.262425 0.0638l-0.027325 -0.000025c-0.103825 0.002125 -0.2068 -0.01915 -0.301275 -0.06225 -0.084475 -0.0397 -0.15905 -0.097725 -0.218275 -0.16985l-0.015375 -0.019775c-0.061825 0.067575 -0.1339 0.125075 -0.21365 0.170425 -0.092575 0.051275 -0.196225 0.07895 -0.301775 0.080775l-0.026425 -0.000075c-0.071225 0.001525 -0.14195 -0.0121 -0.2075 -0.039975 -0.05785 -0.0257 -0.110075 -0.062525 -0.153725 -0.108375 -0.043075 -0.045375 -0.076075 -0.099325 -0.09685 -0.158325 -0.02195 -0.061675 -0.033125 -0.126675 -0.03305 -0.19215v-1.1936c-0.00165 -0.032525 -0.007075 -0.064775 -0.016125 -0.096075 -0.006875 -0.024625 -0.019525 -0.0473 -0.0369 -0.066075 -0.018225 -0.0171 -0.042675 -0.026 -0.067625 -0.0246 -0.058375 0.007775 -0.112475 0.034825 -0.153725 0.07685 -0.068775 0.059725 -0.1297 0.1279 -0.181375 0.2029 -0.061275 0.08765 -0.112825 0.181725 -0.153725 0.280525 -0.043525 0.100325 -0.072025 0.2065 -0.08455 0.315125v0.8539c-0.00085 0.025025 -0.006875 0.049625 -0.017675 0.07225 -0.01065 0.022375 -0.02745 0.0413 -0.0484 0.05455 -0.0292 0.016575 -0.062575 0.0243 -0.096075 0.0223 -0.030975 -0.00025 -0.06185 -0.00335 -0.092225 -0.009225 -0.03235 -0.005425 -0.063375 -0.0169 -0.091475 -0.033825 -0.028425 -0.01705 -0.052 -0.041125 -0.0684 -0.069925 -0.019925 -0.0367 -0.0295 -0.078125 -0.0277 -0.119825 -0.057725 0.0604 -0.1243 0.111925 -0.1975 0.152875 -0.0931 0.0512 -0.1972 0.078875 -0.303175 0.08075l-0.02655 -0.00005c-0.0932 0.002175 -0.185525 -0.0184 -0.269 -0.05995 -0.072475 -0.03655 -0.1344 -0.09105 -0.179825 -0.158325 -0.06205 0.062575 -0.133975 0.1145 -0.2129 0.1537 -0.0819 0.04015 -0.171475 0.061875 -0.262425 0.0638l-0.027325 0c-0.10385 0.002125 -0.2068 -0.01915 -0.3013 -0.06225 -0.084475 -0.0397 -0.15905 -0.097725 -0.218275 -0.169875 -0.061 -0.07525 -0.106225 -0.162025 -0.13295 -0.25515 -0.0305 -0.102225 -0.045525 -0.20845 -0.044575 -0.315125 -0.002775 -0.203575 0.0373 -0.405475 0.117575 -0.592575 0.072625 -0.169625 0.178475 -0.323025 0.311275 -0.45115 0.1281 -0.122875 0.279025 -0.2195 0.44425 -0.284375 0.15315 -0.0605 0.315625 -0.0936 0.48005 -0.0979l0.037975 -0.000475c0.069825 -0.003425 0.13865 0.017775 0.19445 0.05995 0.050625 0.038525 0.079325 0.09935 0.07685 0.162925 0.002425 0.032625 -0.0031 0.065325 -0.01615 0.095325 -0.012725 0.019375 -0.0354 0.029825 -0.0584 0.0269 -0.027725 -0.000075 -0.05545 -0.001625 -0.083 -0.004625 -0.029325 -0.003775 -0.05885 -0.005575 -0.0884 -0.005375 -0.115325 0.001025 -0.229475 0.02345 -0.336625 0.0661 -0.115525 0.04545 -0.220225 0.114575 -0.30745 0.2029 -0.09915 0.09845 -0.177575 0.2158 -0.230575 0.3451 -0.063625 0.1587 -0.094475 0.328625 -0.090675 0.499575 -0.007375 0.1148 0.024025 0.22875 0.08915 0.32355 0.054275 0.068575 0.136325 0.1088 0.22315 0.110175l0.017425 -0.00025c0.075175 0.001725 0.147625 -0.0281 0.199825 -0.08225 0.054225 -0.0559 0.097725 -0.1213 0.12835 -0.1929v-0.82085c0.0014 -0.02175 0.0014 -0.043575 0 -0.065325 -0.003075 -0.0169 -0.00615 -0.031525 -0.009225 -0.0438 0 -0.0123 -0.005375 -0.023075 -0.006925 -0.0323 -0.000675 -0.0092 -0.000675 -0.01845 0 -0.02765 0.001375 -0.028625 0.018575 -0.0541 0.044575 -0.0661 0.027675 -0.014325 0.058 -0.022575 0.089 -0.0243l0.015525 -0.0003c0.0824 -0.00395 0.163675 0.02015 0.230575 0.0684 0.051775 0.03805 0.083 0.09795 0.08455 0.162175v0.877725c-0.00005 0.029325 0.003825 0.058525 0.011525 0.086825 0.007475 0.02715 0.01885 0.05305 0.033825 0.076875 0.0345 0.050475 0.092625 0.07955 0.1537 0.07685l-0.0023 0.006925c0.0566 0.00125 0.111575 -0.019075 0.153725 -0.056875 0.044975 -0.042 0.0824 -0.0914 0.110675 -0.146025 0.032075 -0.059125 0.05785 -0.121475 0.07685 -0.186 0.02 -0.066875 0.036125 -0.129125 0.04995 -0.1883 0.004875 -0.0281 0.0146 -0.055 0.028675 -0.0795l-0.002525 -0.911975c0.002125 -0.036875 -0.0023 -0.0738 -0.013075 -0.109125 -0.00785 -0.01985 -0.012025 -0.040925 -0.0123 -0.062275 0.00235 -0.027925 0.019725 -0.052375 0.04535 -0.063775 0.033575 -0.016925 0.070775 -0.02535 0.108375 -0.0246 0.08245 -0.004575 0.16395 0.0196 0.230575 0.0684 0.052325 0.038875 0.08335 0.100075 0.083775 0.16525v0.239025c0.0388 -0.07215 0.082175 -0.1417 0.129875 -0.208275 0.04515 -0.060925 0.096675 -0.11685 0.153725 -0.1668 0.052075 -0.0461 0.110925 -0.08395 0.174475 -0.1122 0.055675 -0.0237 0.115125 -0.037075 0.17545 -0.039575l0.0259 -0.0004c0.08275 -0.003325 0.16505 0.01355 0.2398 0.0492 0.0594 0.029675 0.1106 0.0735 0.1491 0.127575 0.037025 0.05215 0.06315 0.111225 0.076875 0.1737 0.014125 0.06125 0.02135 0.1239 0.0215 0.186775v1.159775c0.002 0.028025 0.0077 0.055675 0.016925 0.082225 0.009525 0.027 0.024725 0.051625 0.044575 0.07225 0.020375 0.0194 0.047025 0.03055 0.07485 0.031675l0.012 -0.00015c0.056575 0.0011 0.111475 -0.019225 0.1537 -0.056875 0.0447 -0.04205 0.081875 -0.09145 0.109925 -0.146025 0.009475 -0.0177 0.0184 -0.03565 0.0268 -0.05385 -0.011825 -0.065075 -0.0174 -0.1312 -0.016825 -0.197475 -0.002975 -0.2041 0.0371 -0.40655 0.1176 -0.594125 0.0715 -0.1693 0.176 -0.322675 0.307425 -0.45115 0.1281 -0.122875 0.279025 -0.2195 0.44425 -0.284375 0.15315 -0.0605 0.315625 -0.0936 0.48005 -0.0979l0.037975 -0.000475c0.069825 -0.0033 0.1386 0.0179 0.19445 0.05995 0.050625 0.038525 0.079325 0.09935 0.07685 0.162925 0.002425 0.032625 -0.0031 0.065325 -0.01615 0.095325 -0.012725 0.019375 -0.0354 0.029825 -0.0584 0.0269 -0.027725 -0.000075 -0.05545 -0.001625 -0.083 -0.004625 -0.029325 -0.003775 -0.05885 -0.005575 -0.0884 -0.005375 -0.115325 0.001025 -0.229475 0.02345 -0.336625 0.0661 -0.115525 0.04545 -0.220225 0.114575 -0.30745 0.2029 -0.097775 0.0988 -0.17485 0.216125 -0.226725 0.3451 -0.0473 0.11795 -0.0765 0.24215 -0.0868 0.368325 0.004325 0.014925 0.0066 0.03035 0.006875 0.045925v0.013075c-0.000525 0.007925 -0.002325 0.015725 -0.005375 0.02305l-0.0057 0.019325c0 0.00995 0.0001 0.0199 0.000325 0.029875 -0.007375 0.1148 0.024025 0.22875 0.08915 0.32355 0.054125 0.0703 0.13715 0.111725 0.2252 0.113225l0.017675 -0.000225c0.075175 0.001725 0.147625 -0.0281 0.199825 -0.08225 0.054225 -0.0559 0.097725 -0.1213 0.12835 -0.1929v-0.823925c0.0014 -0.02175 0.0014 -0.043575 0 -0.065325 -0.00205 -0.011275 -0.0041 -0.021525 -0.00615 -0.03075l-0.003075 -0.01305c-0.003075 -0.0123 -0.005375 -0.023075 -0.006925 -0.0323 -0.000675 -0.0092 -0.000675 -0.01845 0 -0.02765 0.001375 -0.028625 0.018575 -0.0541 0.044575 -0.0661 0.032975 -0.0171 0.069725 -0.02555 0.10685 -0.0246 0.082425 -0.004275 0.1638 0.019875 0.230575 0.0684 0.053375 0.038225 0.08535 0.0996 0.086075 0.16525v0.8777c-0.00005 0.02935 0.003825 0.05855 0.011525 0.08685 0.00745 0.02715 0.01885 0.053025 0.033825 0.076875 0.0345 0.050475 0.092625 0.07955 0.1537 0.07685l-0.00845 0.00385c0.0566 0.00125 0.11155 -0.019075 0.153725 -0.056875 0.04495 -0.041 0.08265 -0.08935 0.111425 -0.14295 0.0321 -0.059125 0.05785 -0.121475 0.076875 -0.186 0.005625 -0.018825 0.010925 -0.03725 0.015975 -0.055375 -0.0132 -0.07015 -0.01905 -0.141775 -0.017525 -0.213625 0.000025 -0.15245 0.02415 -0.30395 0.071475 -0.44885 0.04425 -0.1408 0.110675 -0.27365 0.196775 -0.393525 0.08085 -0.112325 0.183275 -0.207425 0.301275 -0.27975 0.108075 -0.0656 0.231175 -0.10195 0.357225 -0.10575l0.02705 -0.000325c0.08915 -0.002925 0.177625 0.01635 0.257475 0.0561 0.065325 0.0333 0.12355 0.078975 0.1714 0.134525 0.0422 0.050375 0.074525 0.10825 0.0953 0.1706 0.01845 0.051625 0.028575 0.10585 0.029975 0.16065 0.00055 0.0337 -0.009975 0.066625 -0.029975 0.09375 -0.019725 0.027425 -0.0442 0.051125 -0.07225 0.06995 -0.029125 0.0191 -0.061 0.033625 -0.094525 0.04305 -0.029675 0.00865 -0.06055 0.01255 -0.091475 0.011525 -0.02395 -0.000625 -0.0469 -0.0099 -0.06455 -0.026125 -0.017275 -0.0189 -0.023125 -0.045575 -0.015375 -0.06995 -0.00885 -0.0272 -0.016025 -0.054925 -0.021525 -0.083 -0.007025 -0.033225 -0.01865 -0.0653 -0.034575 -0.0953 -0.0165 -0.03015 -0.0393 -0.056375 -0.066875 -0.076875 -0.03435 -0.023225 -0.0754 -0.034575 -0.116825 -0.032275 -0.058025 0.002625 -0.112925 0.02705 -0.1537 0.0684 -0.056125 0.053875 -0.10175 0.11775 -0.1345 0.1883 -0.041575 0.08895 -0.07305 0.182275 -0.093775 0.278225 -0.024525 0.110775 -0.036625 0.22395 -0.036125 0.3374 -0.001825 0.095425 0.013275 0.1904 0.044575 0.28055 0.026225 0.076575 0.0687 0.146575 0.124525 0.2052 0.053125 0.0556 0.117975 0.098675 0.189825 0.12605 0.07605 0.029075 0.15685 0.04365 0.23825 0.043025 0.102475 0.002525 0.204275 -0.0174 0.298225 -0.0584 0.08145 -0.036425 0.15485 -0.088675 0.215975 -0.153725 0.058875 -0.063875 0.10715 -0.1368 0.14295 -0.21595 0.0345 -0.07735 0.060275 -0.1583 0.07685 -0.24135 0.0016 -0.011075 0.004325 -0.021825 0.008075 -0.03215l-0.0073 -2.37425c0.00105 -0.03055 -0.002325 -0.0611 -0.01 -0.0907 -0.004625 -0.018625 -0.01135 -0.036675 -0.019975 -0.0538 -0.0036 -0.00735 -0.0078 -0.014375 -0.012525 -0.021025l-0.00745 -0.009725c-0.00635 -0.006625 -0.009925 -0.015425 -0.01 -0.024575 0.000475 -0.01115 0.00695 -0.02115 0.0169 -0.02615 0.0145 -0.008125 0.03 -0.014325 0.046125 -0.01845 0.020125 -0.0056 0.0407 -0.00945 0.061475 -0.011525 0.02145 -0.002425 0.043 -0.0037 0.064575 -0.003825 0.08245 -0.00465 0.163975 0.019525 0.230575 0.0684Zm2.5609 1.738525c-0.0461 -0.0006 -0.090925 0.0149 -0.126825 0.0438 -0.03955 0.0322 -0.07265 0.071575 -0.0976 0.11605 -0.02885 0.050775 -0.0518 0.104675 -0.068425 0.160625 -0.017925 0.05935 -0.03255 0.11965 -0.0438 0.180625 -0.01105 0.05715 -0.01875 0.114875 -0.02305 0.172925 -0.003825 0.0455 -0.0051 0.091175 -0.00385 0.1368 -0.00115 0.015625 -0.00115 0.031275 0 0.0469v0.049175c0.072575 -0.029975 0.140425 -0.070375 0.201375 -0.1199 0.059475 -0.047375 0.111325 -0.103625 0.1537 -0.166775 0.086575 -0.1279 0.1324 -0.279025 0.131425 -0.433475 0.0028 -0.0481 -0.0087 -0.095975 -0.03305 -0.137575 -0.018875 -0.03145 -0.05325 -0.05025 -0.0899 -0.049175Z" stroke-width="0.25"></path>
  <path fill="#e4a663" d="M17.30495 12.57095c0.171375 0 0.230575 -0.03995 0.312025 -0.179075 0.081475 -0.1391 0.042275 -0.365075 0.0392 -0.42655 -0.007675 -0.135275 -0.053025 -0.285925 -0.059175 -0.361225 0 -0.046125 0 -0.3405 0.006925 -0.46115 0.102975 -1.90915 0.9223 -2.363375 1.159 -2.414875 0.150975 -0.0445 0.3129 -0.0336 0.45655 0.03075V5.022c0 -0.42195 -0.29975 -0.94075 -0.6656 -1.152875L12.56975 0.4105375c-0.368925 -0.21366425 -0.970725 -0.21366425 -1.333475 -0.002305L5.258275 3.862225c-0.365075 0.21135 -0.664825 0.73015 -0.66405 1.15285v0.75475c-0.0003 0.00435 -0.0003 0.008725 0 0.013075v1.102125c0.034575 0.019225 0.069175 0.0392 0.10375 0.060725 0.11605 0.07685 0.230575 0.119125 0.3474 0.199825 0.3329 0.20285 0.642225 0.442075 0.9223 0.71325 0.054575 0.05225 0.236725 0.2813 0.27975 0.3351 0.1323 0.182275 0.281 0.352075 0.44425 0.50725 0.090175 0.082225 0.18945 0.153925 0.2959 0.213675 0.176 0.09145 0.466525 0.0707 0.61485 0.005375 1.13905 -0.493425 1.853825 -0.24595 2.183525 -0.04765 0.815475 0.489575 1.08755 1.174375 1.1744 2.005975 0.0114 0.107725 0.015 0.2161 0.01075 0.32435 0 0.197525 -0.006925 0.51495 0.201375 0.567975 0.298975 0.07685 0.371225 -0.242875 0.4158 -0.455 0.100675 -0.480375 0.740125 -0.795475 1.2082 -0.553375 0.3228 0.166775 0.455 0.261325 0.77395 0.120675 0.3989 -0.176025 0.604875 -0.6241 0.743975 -0.86235 0.13745 -0.232 0.336425 -0.4214 0.5749 -0.547225 0.62255 -0.388125 2.187375 -0.28745 2.24425 1.437225l0 0.4796c0 0.164475 0.005375 0.3251 -0.005375 0.494975 -0.006925 0.112975 -0.0269 0.23055 -0.037675 0.346625 -0.00305 0 -0.061475 0.3374 0.21445 0.338925Z" stroke-width="0.25"></path>
  <path fill="#5e464d" d="M19.21785 8.761875c-0.042275 -0.01305 -0.16525 -0.09375 -0.455 -0.030725 -0.2375 0.051475 -1.056025 0.5057 -1.159 2.41485 -0.00615 0.1176 -0.01 0.411975 -0.006925 0.46115 0.00615 0.07685 0.0515 0.225975 0.059175 0.361225 0 0.0615 0.046875 0.284375 -0.0392 0.426575 -0.086075 0.142175 -0.14065 0.17985 -0.31205 0.179075 -0.2759 0 -0.2175 -0.33895 -0.2175 -0.33895 0.010775 -0.114525 0.03075 -0.230575 0.037675 -0.346625 0.01075 -0.16985 0.005375 -0.330475 0.005375 -0.49495l0 -0.4796c-0.056875 -1.7247 -1.6217 -1.825375 -2.24425 -1.43725 -0.238475 0.12585 -0.43745 0.31525 -0.5749 0.547225 -0.1391 0.238275 -0.345075 0.68635 -0.743975 0.86235 -0.31895 0.14065 -0.45115 0.046125 -0.77395 -0.120675 -0.468075 -0.2421 -1.107525 0.073025 -1.2082 0.553375 -0.0446 0.21215 -0.116825 0.5311 -0.4158 0.455 -0.2083 -0.053025 -0.201375 -0.37045 -0.201375 -0.567975 0.004225 -0.108225 0.00065 -0.216625 -0.010775 -0.324325 -0.08685 -0.8316 -0.358925 -1.5164 -1.174375 -2.006 -0.329725 -0.198275 -1.0445 -0.445775 -2.183525 0.04765 -0.153725 0.065325 -0.441175 0.0861 -0.61485 -0.005375 -0.10645 -0.05975 -0.205725 -0.131425 -0.295925 -0.21365 -0.16325 -0.155175 -0.31195 -0.324975 -0.444225 -0.507275 -0.04305 -0.0538 -0.2252 -0.282825 -0.279775 -0.3351 -0.28005 -0.271175 -0.589375 -0.510375 -0.922275 -0.713225 -0.116825 -0.076875 -0.230575 -0.12605 -0.3474 -0.19985 -0.0346 -0.0215 -0.069175 -0.0415 -0.10375 -0.0607v5.03955c0 0.422725 0.299725 0.9415 0.665575 1.152875l5.98415 3.458575c0.365825 0.212125 0.96455 0.212125 1.3304 0l5.9849 -3.453975c0.36585 -0.21135 0.664825 -0.73015 0.66405 -1.152875l-0.0023 -3.170375Z" stroke-width="0.25"></path>
  <path fill="#ffffff" d="M12.665875 7.9149c-0.4135 0.23905 -1.090625 0.23905 -1.5041 0l-6.119425 -3.228c0.069175 0.0684 6.2055 3.63305 6.2055 3.63305 0.36585 0.212125 0.96455 0.212125 1.3304 0 0 0 6.127875 -3.5539 6.197025 -3.6223l-6.1094 3.21725Z" stroke-width="0.25"></path>
  <path fill="#ffffff" d="M11.151575 0.8709225c0.41425 -0.2367225 1.0906 -0.2367225 1.504875 0.0007675l0.741675 0.3074325c-0.069175 -0.068405 -0.828525 -0.5602925 -0.828525 -0.5602925 -0.36585 -0.21136 -0.9638 -0.2121275 -1.32965 0 0 0 -1.2128 0.71247 -1.2812 0.780105l1.192825 -0.5280125Z" stroke-width="0.25"></path>
</svg>